<svg xmlns="http://www.w3.org/2000/svg" height="20.62" width="119.999"><path d="M73.973 0c-.485 0-.976.012-1.227.037-2.402.246-4.013 1.052-5.156 2.58-.877 1.173-1.245 2.676-1.055 4.299.225 1.923 1.162 3.18 2.932 3.932.95.403 1.886.667 4.238 1.195 2.022.453 2.473.577 3.143.863 1.009.43 1.429.968 1.427 1.823 0 .72-.285 1.345-.798 1.753-.652.519-1.536.762-2.918.807-1.61.053-2.766-.26-3.514-.953-.481-.445-.766-1.083-.951-2.12l-.026-.134-1.937-.008c-1.741-.007-1.939-.004-1.955.04-.025.065.031.81.088 1.161.194 1.204.724 2.268 1.547 3.104 1.276 1.296 3.181 2.054 5.554 2.213.2.013.615.025.922.027 2.44.018 4.411-.556 5.785-1.686.269-.22.809-.773.99-1.013.866-1.144 1.253-2.492 1.143-3.98-.167-2.265-1.253-3.644-3.537-4.493-.62-.23-1.072-.35-3.354-.896-3.25-.778-3.802-.947-4.341-1.332-.592-.423-.835-1.191-.631-1.993.224-.88 1.072-1.514 2.332-1.742.29-.052.484-.065 1.023-.068.734-.003 1.048.03 1.573.164.698.179 1.135.417 1.576.86.28.281.319.335.472.652.162.333.27.685.309 1.011.01.083.024.182.031.219l.014.068H81.57v-.21c0-.116-.02-.37-.047-.565-.286-2.186-1.388-3.707-3.425-4.727-.89-.445-1.821-.714-2.95-.85A13.017 13.017 0 0 0 73.973 0zm37.777 0c-.484 0-.976.012-1.227.037-2.402.246-4.011 1.052-5.154 2.58-.876 1.173-1.246 2.676-1.057 4.299.225 1.923 1.163 3.18 2.932 3.932.95.403 1.887.667 4.238 1.195 2.022.453 2.473.577 3.143.863 1.009.43 1.429.968 1.428 1.823-.001.72-.285 1.345-.8 1.753-.651.519-1.535.762-2.917.807-1.61.053-2.764-.26-3.512-.953-.48-.445-.768-1.083-.953-2.12l-.025-.134-1.938-.008c-1.74-.007-1.938-.004-1.955.04-.025.065.031.81.088 1.161.194 1.204.724 2.268 1.547 3.104 1.277 1.296 3.181 2.054 5.555 2.213.199.013.614.025.921.027 2.44.018 4.412-.556 5.786-1.686.268-.22.808-.773.99-1.013.864-1.142 1.247-2.472 1.142-3.967-.158-2.268-1.246-3.655-3.535-4.506-.62-.23-1.073-.35-3.355-.896-3.251-.778-3.8-.947-4.34-1.332-.592-.423-.835-1.191-.63-1.993.223-.88 1.07-1.514 2.33-1.742.29-.052.484-.065 1.023-.068.734-.003 1.047.03 1.572.164.698.179 1.135.417 1.576.86.281.281.32.335.473.652.161.333.269.685.308 1.011.01.083.025.182.033.219l.014.068H119.348v-.21c0-.116-.022-.37-.047-.565-.287-2.186-1.389-3.707-3.426-4.727-.89-.445-1.821-.714-2.95-.85A13.017 13.017 0 0 0 111.75 0zM33.336.537c-.77.034-1.346.275-1.848.774-.637.633-.95 1.65-.847 2.75.078.835.337 1.434.832 1.921.38.375.802.597 1.31.694.291.055.913.04 1.172-.028.35-.092.657-.268.924-.533.135-.134.252-.238.26-.23.007.008.036.148.062.312.027.164.062.317.078.338.022.028.129.036.41.03l.381-.008V3.414h-2.418v.967l.662.008.66.008-.017.138c-.042.304-.316.717-.605.914-.198.135-.46.22-.745.237-.47.029-.87-.117-1.222-.447-.242-.227-.36-.458-.446-.87-.08-.39-.065-1.162.032-1.523.255-.957 1-1.44 1.918-1.246.394.083.724.333.863.652.04.09.081.184.094.21.03.062 1.171.084 1.195.023.027-.072-.104-.506-.219-.727-.15-.287-.577-.723-.865-.883C34.5.623 33.961.51 33.336.537zM14.332.541c-.284.003-.57.026-.746.07-.407.102-.686.253-.938.504-.357.358-.507.732-.507 1.256 0 .622.23 1.06.703 1.336.202.119.702.275 1.33.416 1.248.28 1.48.41 1.48.83 0 .32-.187.543-.558.66-.28.089-.932.096-1.198.014-.355-.11-.557-.328-.668-.719l-.039-.134h-1.148l.008.166c.037.897.73 1.56 1.816 1.738.175.028.417.04.73.031.825-.02 1.297-.193 1.739-.635.371-.371.51-.709.508-1.242-.003-.692-.32-1.153-.98-1.424-.107-.043-.615-.184-1.132-.312-1.028-.255-1.23-.328-1.359-.496-.22-.288-.083-.723.285-.909.367-.184.984-.178 1.358.012a.881.881 0 0 1 .414.506c.027.097.053.194.06.215.01.03.142.035.58.03l.567-.009.01-.098c.012-.134-.092-.538-.196-.751-.219-.45-.767-.844-1.392-1-.162-.04-.443-.058-.727-.055zM8.568.545c-.65 0-.921.053-1.375.274-.251.122-.325.177-.59.445-.34.344-.508.607-.65 1.025-.308.906-.255 2.16.123 2.95.4.835 1.063 1.324 1.977 1.455.308.043 1.054.009 1.345-.063.399-.097.766-.29 1.041-.547.65-.606.931-1.35.932-2.459 0-.551-.05-.908-.191-1.33-.143-.429-.303-.683-.647-1.031-.265-.268-.338-.323-.59-.445C9.49.599 9.218.545 8.568.545zm40.543.012v19.586l7.397-.008 7.396-.008V16.65l-5.394-.015-5.395-.014v-5.018l4.73-.015 4.731-.016V8.187l-4.73-.013-4.73-.016V4.05l5.152-.01c4.075-.006 5.154-.015 5.173-.045.028-.044.036-3.317.008-3.389-.016-.044-.677-.049-7.178-.049zm-8.265.015l-.018 7.268c-.015 6.63-.02 7.298-.066 7.605-.157 1.031-.559 1.546-1.377 1.77-.346.094-1.15.095-1.528 0-.509-.128-.9-.405-1.1-.781-.294-.559-.478-1.62-.509-2.942a12.44 12.44 0 0 0-.03-.718l-.013-.069-1.91.008-1.912.008-.01.514a12.79 12.79 0 0 0 .236 2.644c.285 1.432.832 2.618 1.526 3.31.832.833 2.073 1.29 3.855 1.417.372.027 1.719-.01 2.055-.057 1.447-.198 2.549-.704 3.34-1.53.799-.836 1.224-1.825 1.445-3.366l.064-.453V.573h-2.023zm44.425 0v6.633c0 7.302-.008 6.908.186 7.979.372 2.059 1.272 3.428 2.875 4.373.893.526 2.168.896 3.469 1.006l.53.045c.318.027 1.88-.013 2.265-.057 3.6-.417 5.622-2.183 6.181-5.4.198-1.14.2-1.212.19-8.247l-.01-6.332h-4.11L96.83 7.04c-.018 6.753-.016 6.644-.15 7.41-.081.458-.187.78-.381 1.162-.43.845-1.118 1.303-2.246 1.499-.361.062-1.443.07-1.8.013-1.555-.25-2.371-1.024-2.687-2.552-.153-.744-.148-.5-.166-7.485L89.383.572h-2.055zM.662.715L.076.723.068 3.61C.064 5.197.066 6.513.074 6.534c.011.028.16.037.602.037.507 0 .59-.006.605-.047.01-.027.018-.62.018-1.317V3.942l1.127.008 1.125.008.015 1.299c.01.714.02 1.303.024 1.308.004.005.275.005.603 0l.598-.008V.723L4.193.715c-.328-.005-.6-.005-.603 0-.004.005-.015.505-.024 1.111L3.551 2.93l-1.125.008-1.127.008v-1.08c0-.595-.012-1.098-.026-1.12C1.255.718 1.112.71.663.717zm19 0c-1.864-.006-2.362.001-2.38.031-.032.05-.032.902 0 .951.017.028.242.04.884.045l.86.008.007 2.373c.004 1.305.014 2.39.022 2.41.01.03.159.04.603.04.325 0 .594-.004.598-.008.004-.004.015-1.09.023-2.41l.016-2.403.861-.016.862-.015V.723zm3.611 0c-.45-.006-.592.002-.61.031-.029.045-.037 5.705-.009 5.778.017.042.092.048.614.04l.593-.007V.723zm2.362 0l-.625.008-.008 2.887c-.004 1.587-.002 2.904.006 2.925.011.03.141.036.566.03l.553-.008.016-2.008c.013-1.719.02-1.998.056-1.955.023.028.556.93 1.184 2.006l1.14 1.957H29.754V.723H28.635l-.008 1.945c-.006 1.533-.015 1.94-.045 1.932-.02-.007-.528-.853-1.129-1.883-.6-1.03-1.115-1.904-1.142-1.941-.05-.069-.057-.069-.676-.061zm-17.09.84c.13-.001.263.014.394.045.564.133.945.55 1.13 1.238.054.204.065.327.066.787 0 .465-.01.579-.067.785-.19.705-.604 1.145-1.18 1.254-.52.099-1.019-.043-1.359-.385-.217-.218-.338-.432-.445-.779C7.004 4.242 7 4.2 7 3.625c0-.574.005-.619.084-.877.106-.345.228-.56.441-.775a1.446 1.446 0 0 1 1.02-.418zm5.12 7.38c-1.021.05-1.93.319-2.634.788-.337.225-1.03.933-1.277 1.306-.48.727-.76 1.563-.885 2.645-.063.544-.047 1.777.03 2.248.232 1.434.688 2.362 1.591 3.238.342.331.634.543 1.012.733.474.238 1.169.427 1.8.488 1.133.11 2.322-.057 3.165-.441.907-.414 1.791-1.36 2.242-2.399.403-.93.584-2.125.512-3.385-.1-1.733-.56-2.889-1.54-3.869-.82-.82-1.69-1.21-2.962-1.326a7.583 7.583 0 0 0-1.055-.025zM0 9.26v10.883l1.125-.008 1.127-.008.016-2.284.013-2.28 2.373-.016 2.373-.014v-1.844l-2.373-.016-2.373-.015V11.15l2.705-.016 2.705-.013V9.277l-3.845-.008zm23.77.008l-2.72.008-.007 5.394c-.004 2.967-.002 5.413.006 5.434.011.03.247.037 1.096.031l1.082-.008.013-2.117.016-2.115 1.451.002c1.283 0 1.474.006 1.658.052.438.112.653.265.787.565.146.324.17.519.198 1.588.027 1.032.075 1.46.205 1.857l.052.168h2.479l.01-.117c.008-.103-.007-.132-.139-.272-.227-.24-.277-.408-.31-1.03a27.005 27.005 0 0 1-.028-1.136c0-.386-.019-.73-.047-.914-.048-.32-.163-.702-.263-.869a2.022 2.022 0 0 0-.832-.736c-.088-.044-.159-.093-.159-.108 0-.014.059-.048.13-.076.428-.17.886-.585 1.099-.998.293-.567.387-.996.365-1.664-.016-.52-.086-.811-.29-1.217-.428-.845-1.114-1.396-1.98-1.591-.57-.13-.957-.141-3.872-.131zm-9.725 1.61c.268.001.538.024.709.068 1.134.285 1.863 1.184 2.129 2.623.079.428.08 1.801.002 2.212-.273 1.433-1.003 2.334-2.115 2.61-.287.071-.93.1-1.215.056-.4-.062-.87-.25-1.164-.466a4.098 4.098 0 0 1-.655-.68c-.49-.721-.73-1.874-.646-3.08.086-1.223.402-2.017 1.05-2.637a2.514 2.514 0 0 1 1.208-.65c.161-.04.428-.06.697-.057zm9.21.273h1.587c1.76 0 1.814.004 2.183.2.432.23.654.733.62 1.401-.042.794-.422 1.177-1.268 1.283-.379.047-3.105.043-3.123-.006-.008-.02-.01-.677-.006-1.459z" fill="#f30202"/></svg>
