<svg xmlns="http://www.w3.org/2000/svg" height="20.626" width="120"><path d="M73.969 0c-.484 0-.976.012-1.223.037-2.397.245-4.015 1.056-5.156 2.582-.727.973-1.1 2.15-1.1 3.47 0 2.112.815 3.625 2.418 4.495.633.343 1.741.728 3.02 1.049.24.06 1.039.245 1.773.41 1.593.357 1.962.447 2.461.61 1.515.491 2.062 1.004 2.106 1.972.042.963-.388 1.708-1.247 2.152-.636.33-1.357.48-2.476.514-1.157.036-2.089-.12-2.781-.467-.915-.457-1.37-1.114-1.616-2.334l-.082-.408-1.935-.008c-1.683-.006-1.938-.001-1.953.037-.029.074.033.853.097 1.225.208 1.2.73 2.23 1.547 3.053 1.287 1.295 3.176 2.045 5.543 2.203 2.109.14 4.053-.166 5.457-.862a5.983 5.983 0 0 0 1.783-1.3c.903-.928 1.425-2.004 1.567-3.23.228-1.967-.33-3.644-1.55-4.669-.681-.57-1.614-1.024-2.798-1.36-.24-.067-1.376-.348-2.523-.622-2.2-.527-2.864-.7-3.375-.877-1.033-.358-1.466-.759-1.615-1.494a2.07 2.07 0 0 1 .478-1.77c.643-.701 1.775-1.055 3.195-1 .76.03 1.353.145 1.88.367.423.179.654.335.982.664.28.282.32.336.474.653.162.333.268.686.307 1.012.01.083.025.18.033.218l.014.069h3.896V6.18c0-.116-.019-.37-.045-.565C81.238 3.42 80.13 1.9 78.072.877c-.886-.44-1.797-.701-2.94-.84C74.927.012 74.453 0 73.97 0zm37.78 0c-.484 0-.979.012-1.226.037-2.396.245-4.013 1.056-5.154 2.582-.727.973-1.101 2.15-1.101 3.47 0 2.112.814 3.625 2.418 4.495.632.343 1.743.728 3.021 1.049.24.06 1.037.245 1.772.41 1.592.357 1.962.447 2.46.61 1.515.491 2.065 1.004 2.108 1.972.043.963-.388 1.708-1.246 2.152-.637.33-1.36.48-2.479.514-1.157.036-2.086-.12-2.779-.467-.915-.457-1.372-1.114-1.617-2.334l-.082-.408-1.936-.008c-1.682-.006-1.938-.001-1.953.037-.028.074.035.853.1 1.225.207 1.2.729 2.23 1.547 3.053 1.286 1.295 3.176 2.045 5.543 2.203 2.108.14 4.05-.166 5.455-.862.725-.36 1.22-.719 1.785-1.3.902-.928 1.422-2.004 1.564-3.23.228-1.967-.328-3.644-1.549-4.669-.68-.57-1.614-1.024-2.798-1.36-.241-.067-1.377-.348-2.524-.622-2.2-.527-2.862-.7-3.373-.877-1.032-.358-1.466-.759-1.615-1.494a2.07 2.07 0 0 1 .478-1.77c.643-.701 1.775-1.055 3.196-1 .76.03 1.35.145 1.877.367.423.179.656.335.984.664.281.282.32.336.473.653.161.333.269.686.308 1.012.01.083.023.18.031.218l.014.069h3.899V6.18c0-.116-.022-.37-.047-.565-.288-2.195-1.396-3.716-3.453-4.738-.887-.44-1.795-.701-2.938-.84-.207-.025-.68-.037-1.164-.037zM8.548.527c-.18.002-.362.016-.545.043-.623.094-.976.27-1.4.696-.332.332-.5.594-.637.984-.32.913-.273 2.19.11 2.988.4.836 1.062 1.325 1.976 1.455.308.044 1.054.009 1.345-.062.399-.097.766-.29 1.041-.547.651-.608.932-1.353.932-2.475 0-.735-.133-1.317-.41-1.812-.177-.316-.653-.794-.941-.943A3.152 3.152 0 0 0 8.549.527zm24.844.004c-.553.02-1.096.17-1.508.45-.862.581-1.334 1.683-1.256 2.931.055.889.316 1.536.83 2.053.385.388.804.612 1.324.71.291.056.913.042 1.172-.027.35-.092.65-.266.92-.535.169-.167.256-.234.271-.209.013.02.042.155.063.3.058.393.029.37.478.36l.383-.007V3.414h-2.418v.967l.662.008.663.007-.02.14c-.042.306-.314.715-.613.921-.192.132-.443.21-.737.229-.469.03-.869-.117-1.222-.448-.379-.354-.515-.816-.49-1.658.023-.786.164-1.208.53-1.576.302-.302.655-.45 1.077-.45.6 0 1.052.264 1.273.743l.104.224h.574c.436 0 .579-.01.59-.039.027-.07-.106-.506-.22-.726-.15-.288-.577-.721-.866-.881-.45-.25-1.012-.363-1.564-.344zM14.355.545c-.69 0-1.068.096-1.476.373-.48.326-.738.834-.738 1.453 0 .508.132.85.437 1.133.29.268.634.402 1.596.619 1.251.282 1.482.41 1.482.83 0 .322-.185.543-.552.658-.287.09-.937.099-1.206.016-.355-.11-.557-.328-.668-.719l-.039-.135h-1.148l.008.166c.037.91.72 1.557 1.836 1.74.154.026.411.037.71.03.825-.02 1.297-.193 1.739-.635.371-.371.51-.709.508-1.242-.003-.692-.32-1.153-.98-1.424-.107-.043-.615-.184-1.132-.312-1.028-.256-1.23-.328-1.359-.496-.22-.289-.083-.723.285-.909.367-.184.984-.178 1.358.012a.881.881 0 0 1 .414.506c.027.097.053.194.06.215.01.03.142.035.58.03l.567-.009.01-.097c.012-.135-.092-.539-.196-.752-.165-.34-.564-.688-.996-.867-.362-.151-.565-.184-1.1-.184zm34.756.012v19.586l7.399-.008 7.396-.008V16.65l-5.394-.015-5.395-.014V11.604l4.729-.016 4.73-.014V8.187l-4.73-.013-4.729-.016V4.05l5.15-.01c4.076-.006 5.157-.015 5.176-.045.028-.044.034-3.317.006-3.389-.016-.043-.677-.048-7.178-.048h-7.16zm-8.265.015L40.83 7.84c-.018 7.877-.012 7.56-.178 8.137-.184.643-.612 1.06-1.267 1.24-.309.084-1.14.091-1.487.013-.458-.102-.877-.373-1.087-.705-.336-.528-.573-1.894-.575-3.304 0-.241-.01-.456-.023-.477-.02-.03-.426-.037-1.928-.031l-1.902.008-.008.5c-.016.85.07 1.827.236 2.658.286 1.432.83 2.62 1.524 3.312.807.808 2.006 1.263 3.69 1.403v-.002c.479.04 1.802.014 2.22-.043 1.447-.199 2.55-.703 3.342-1.53.799-.834 1.223-1.825 1.443-3.367l.065-.453.001-7.314V.572h-4.05zm44.427 0v6.635c0 6.24.003 6.661.055 7.102.18 1.52.525 2.607 1.098 3.464 1.138 1.703 2.97 2.61 5.693 2.82.5.04 1.993.014 2.479-.042 3.546-.408 5.54-2.107 6.148-5.242.233-1.196.233-1.22.223-8.405l-.01-6.332H96.85l-.018 6.498c-.018 6.972-.014 6.725-.168 7.494-.168.84-.56 1.542-1.084 1.942-.601.458-1.338.655-2.45.656-.67 0-.925-.027-1.396-.15-1.204-.315-1.886-1.085-2.17-2.455-.15-.726-.145-.503-.164-7.471L89.383.572h-4.11zM.663.715L.075.723.068 3.609C.064 5.197.066 6.512.074 6.533c.011.029.16.037.602.037.507 0 .59-.005.605-.047.01-.026.018-.617.018-1.314V3.941h2.267V5.22c0 .702.012 1.293.026 1.314.018.03.162.037.611.031l.588-.007V.723L4.203.715c-.45-.006-.593.002-.611.031-.014.021-.025.523-.026 1.117v1.082H1.3V1.863c0-.594-.012-1.096-.026-1.117C1.255.716 1.112.71.663.715zm19 0C17.797.709 17.3.716 17.28.746c-.03.05-.03.902 0 .951.018.028.243.04.885.045l.86.008.007 2.373c.004 1.305.014 2.39.022 2.41.01.029.159.04.603.04.325 0 .594-.005.598-.009.004-.004.015-1.088.023-2.41l.016-2.404.861-.014.862-.015V.723L19.662.715zm3.61 0c-.45-.006-.592.002-.61.031-.029.044-.035 5.704-.007 5.777.017.043.09.048.612.041l.593-.007V.723l-.588-.008zm2.352 0l-.615.008-.008 2.886c-.004 1.588-.002 2.905.006 2.926.011.03.143.035.568.03l.551-.008.016-2.008c.013-1.719.02-1.999.056-1.955.023.028.556.93 1.184 2.006l1.14 1.957H29.754V.725h-1.117l-.008 1.941c-.006 1.524-.017 1.94-.047 1.94-.02-.001-.539-.865-1.152-1.92C26.816 1.63 26.297.755 26.277.738c-.022-.019-.271-.028-.652-.023zm-17.057.84c.745 0 1.278.455 1.5 1.283.09.334.099 1.151.016 1.512-.164.716-.606 1.202-1.195 1.314-.938.178-1.675-.385-1.864-1.42a4.86 4.86 0 0 1 0-1.24c.166-.91.74-1.45 1.543-1.45zm5.141 7.383a7.15 7.15 0 0 0-.998.113 4.45 4.45 0 0 0-1.65.654c-.363.234-1.04.923-1.307 1.326-.45.68-.731 1.48-.873 2.49-.054.384-.056 1.916-.002 2.268.186 1.228.514 2.065 1.11 2.826.252.324.763.814 1.042 1.002.615.414 1.381.672 2.268.762 1.117.114 2.324-.054 3.17-.44.532-.242 1.214-.805 1.613-1.33.699-.919 1.051-1.981 1.139-3.431.08-1.335-.13-2.612-.592-3.58-.435-.912-1.321-1.815-2.16-2.198-.763-.347-1.757-.507-2.76-.463zM0 9.26v10.883l1.125-.008 1.127-.008.016-2.281.013-2.284 2.373-.013 2.373-.016V13.69l-2.373-.015-2.373-.016V11.15l2.705-.015 2.705-.014V9.277L3.846 9.27 0 9.26zm21.05.015l-.007 5.395c-.004 2.967-.002 5.413.006 5.434.011.03.247.037 1.096.03l1.082-.007.015-2.117.014-2.115h1.451c1.283 0 1.476.007 1.66.054.438.112.65.264.785.565.146.324.17.519.2 1.588.026.985.053 1.268.166 1.722.088.356-.069.32 1.337.31l1.23-.007.01-.117c.01-.103-.006-.132-.138-.272-.223-.235-.276-.411-.309-1.002a25.83 25.83 0 0 1-.029-1.134c0-.416-.018-.757-.047-.948-.118-.786-.425-1.25-1.049-1.578-.112-.059-.205-.117-.205-.13 0-.015.059-.049.13-.077.428-.17.886-.59 1.105-1.01.151-.291.287-.695.338-1.007.06-.375.025-1.037-.073-1.364-.293-.98-1.083-1.794-1.982-2.043-.606-.168-.621-.17-3.824-.17H21.05zm-7.005 1.602c.268.002.54.025.71.068.474.12.848.328 1.182.657.466.458.745 1.015.918 1.826.078.363.084.424.084 1.228 0 .685-.011.9-.054 1.125-.275 1.439-.998 2.333-2.114 2.61-.291.072-.93.1-1.232.054a3.138 3.138 0 0 1-.943-.334 3.338 3.338 0 0 1-.825-.765c-.517-.73-.768-1.883-.681-3.125.086-1.223.402-2.017 1.05-2.637a2.514 2.514 0 0 1 1.208-.65c.161-.04.428-.06.697-.057zm9.21.273h1.589c1.76 0 1.812.005 2.181.202.432.23.654.731.62 1.4-.042.794-.42 1.177-1.266 1.283-.379.047-3.105.043-3.123-.006-.008-.02-.012-.677-.008-1.459l.008-1.42z" fill="#fd4301"/></svg>