<?xml version="1.0" standalone="no"?>
<!DOCTYPE svg PUBLIC "-//W3C//DTD SVG 20010904//EN"
 "http://www.w3.org/TR/2001/REC-SVG-20010904/DTD/svg10.dtd">
<svg version="1.0" xmlns="http://www.w3.org/2000/svg"
 width="875.000000pt" height="875.000000pt" viewBox="0 0 875.000000 875.000000"
 preserveAspectRatio="xMidYMid meet">
<metadata>
Created by potrace 1.11, written by Peter Selinger 2001-2013
</metadata>
<g transform="translate(0.000000,875.000000) scale(0.100000,-0.100000)"
fill="#000000" stroke="none">
<path d="M3703 8682 l-32 -3 0 -1146 c0 -630 -2 -1147 -5 -1150 -3 -3 -520 -5
-1150 -4 l-1146 0 -1 -62 c0 -34 -1 -344 -2 -689 -2 -550 0 -627 13 -630 8 -2
527 -4 1153 -3 753 0 1137 -3 1137 -10 0 -5 1 -1111 1 -2457 l0 -2448 692 0
692 0 0 2457 0 2458 1153 0 1152 0 0 691 0 692 -1122 0 c-618 1 -1137 1 -1153
2 l-30 0 0 1150 0 1150 -60 1 c-302 2 -1267 3 -1292 1z"/>
</g>
</svg>